<?xml version="1.0" encoding="UTF-8" standalone="no"?>
<!DOCTYPE svg PUBLIC "-//W3C//DTD SVG 1.1//EN" "http://www.w3.org/Graphics/SVG/1.1/DTD/svg11.dtd">
<svg width="100%" height="100%" viewBox="0 0 1775 278" version="1.1" xmlns="http://www.w3.org/2000/svg" xmlns:xlink="http://www.w3.org/1999/xlink" xml:space="preserve" xmlns:serif="http://www.serif.com/" style="fill-rule:evenodd;clip-rule:evenodd;stroke-linejoin:round;stroke-miterlimit:2;">
    <g transform="matrix(1,0,0,1,-423.230134,-1283.487858)">
        <g transform="matrix(4.166667,0,0,4.166667,0,0)">
            <g transform="matrix(0.24,0,0,0.24,75.538376,234.108185)">
                <g transform="matrix(295.275417,0,0,295.275417,99.3926,526.540894)">
                    <path d="M0.039,-0.082C0.033,-0.091 0.03,-0.102 0.031,-0.114C0.031,-0.126 0.039,-0.137 0.052,-0.146C0.061,-0.152 0.071,-0.154 0.081,-0.153C0.092,-0.152 0.101,-0.147 0.111,-0.138C0.13,-0.117 0.151,-0.101 0.173,-0.089C0.196,-0.077 0.224,-0.071 0.257,-0.071C0.27,-0.072 0.284,-0.074 0.298,-0.077C0.312,-0.081 0.324,-0.087 0.334,-0.097C0.344,-0.107 0.349,-0.121 0.349,-0.14C0.349,-0.156 0.344,-0.17 0.333,-0.18C0.322,-0.19 0.308,-0.198 0.291,-0.204C0.274,-0.211 0.255,-0.217 0.235,-0.222C0.213,-0.228 0.192,-0.235 0.17,-0.242C0.149,-0.25 0.129,-0.259 0.112,-0.271C0.094,-0.282 0.08,-0.298 0.069,-0.316C0.058,-0.335 0.053,-0.357 0.053,-0.385C0.053,-0.417 0.062,-0.444 0.079,-0.466C0.097,-0.489 0.12,-0.506 0.148,-0.519C0.177,-0.531 0.208,-0.537 0.24,-0.537C0.26,-0.537 0.28,-0.535 0.302,-0.53C0.323,-0.526 0.344,-0.518 0.364,-0.507C0.384,-0.497 0.401,-0.482 0.416,-0.465C0.423,-0.456 0.426,-0.446 0.427,-0.434C0.428,-0.422 0.423,-0.411 0.411,-0.402C0.403,-0.395 0.393,-0.392 0.382,-0.393C0.371,-0.393 0.361,-0.397 0.354,-0.404C0.341,-0.42 0.325,-0.432 0.305,-0.441C0.285,-0.45 0.262,-0.455 0.237,-0.455C0.224,-0.455 0.211,-0.453 0.198,-0.449C0.184,-0.446 0.172,-0.439 0.163,-0.43C0.153,-0.42 0.149,-0.407 0.149,-0.389C0.149,-0.372 0.155,-0.359 0.165,-0.349C0.176,-0.339 0.191,-0.33 0.209,-0.324C0.227,-0.317 0.247,-0.311 0.268,-0.305C0.289,-0.3 0.309,-0.294 0.329,-0.287C0.349,-0.279 0.368,-0.27 0.384,-0.258C0.401,-0.247 0.414,-0.232 0.424,-0.213C0.434,-0.195 0.44,-0.172 0.44,-0.144C0.44,-0.112 0.43,-0.084 0.411,-0.061C0.393,-0.038 0.369,-0.02 0.34,-0.008C0.311,0.004 0.28,0.01 0.248,0.01C0.21,0.01 0.172,0.003 0.135,-0.011C0.097,-0.024 0.065,-0.048 0.039,-0.082Z" style="fill:rgb(17,193,225);fill-rule:nonzero;"/>
                </g>
                <g transform="matrix(295.275417,0,0,295.275417,247.842316,526.540894)">
                    <path d="M0.315,0.01C0.26,0.01 0.212,-0.002 0.171,-0.025C0.13,-0.048 0.099,-0.079 0.076,-0.12C0.054,-0.16 0.043,-0.206 0.043,-0.258C0.043,-0.317 0.055,-0.367 0.079,-0.408C0.102,-0.45 0.133,-0.482 0.171,-0.504C0.209,-0.526 0.25,-0.537 0.292,-0.537C0.325,-0.537 0.356,-0.531 0.385,-0.518C0.415,-0.506 0.441,-0.488 0.463,-0.465C0.486,-0.442 0.504,-0.415 0.518,-0.384C0.531,-0.353 0.538,-0.319 0.538,-0.282C0.538,-0.268 0.533,-0.257 0.523,-0.249C0.513,-0.24 0.501,-0.236 0.488,-0.236L0.099,-0.236L0.075,-0.321L0.451,-0.321L0.432,-0.303L0.432,-0.328C0.43,-0.351 0.423,-0.372 0.409,-0.389C0.395,-0.407 0.377,-0.42 0.357,-0.43C0.336,-0.44 0.315,-0.445 0.292,-0.445C0.272,-0.445 0.253,-0.442 0.235,-0.436C0.216,-0.429 0.2,-0.419 0.185,-0.405C0.171,-0.391 0.16,-0.373 0.152,-0.35C0.143,-0.327 0.139,-0.298 0.139,-0.264C0.139,-0.227 0.147,-0.195 0.162,-0.168C0.177,-0.14 0.198,-0.119 0.224,-0.104C0.25,-0.089 0.278,-0.082 0.31,-0.082C0.334,-0.082 0.355,-0.084 0.37,-0.089C0.387,-0.094 0.4,-0.1 0.411,-0.108C0.421,-0.115 0.431,-0.122 0.439,-0.129C0.449,-0.135 0.459,-0.138 0.469,-0.138C0.481,-0.138 0.491,-0.134 0.499,-0.125C0.507,-0.117 0.511,-0.107 0.511,-0.096C0.511,-0.081 0.504,-0.068 0.489,-0.056C0.471,-0.039 0.446,-0.023 0.414,-0.01C0.383,0.003 0.35,0.01 0.315,0.01Z" style="fill:rgb(17,193,225);fill-rule:nonzero;"/>
                </g>
                <g transform="matrix(295.275417,0,0,295.275417,425.450479,526.540894)">
                    <path d="M0.289,-0.537C0.317,-0.537 0.343,-0.533 0.367,-0.524C0.392,-0.515 0.412,-0.503 0.43,-0.488C0.448,-0.474 0.462,-0.459 0.472,-0.444C0.482,-0.429 0.486,-0.415 0.486,-0.404L0.464,-0.403L0.464,-0.483C0.464,-0.497 0.468,-0.509 0.478,-0.519C0.487,-0.529 0.499,-0.533 0.514,-0.533C0.528,-0.533 0.54,-0.529 0.55,-0.519C0.559,-0.51 0.564,-0.498 0.564,-0.483L0.564,-0.042C0.564,0.015 0.552,0.061 0.528,0.096C0.504,0.132 0.472,0.158 0.432,0.175C0.393,0.192 0.349,0.2 0.302,0.2C0.285,0.2 0.266,0.198 0.243,0.194C0.22,0.189 0.199,0.184 0.18,0.178C0.161,0.172 0.148,0.166 0.141,0.16C0.126,0.152 0.116,0.143 0.111,0.132C0.105,0.122 0.105,0.111 0.11,0.1C0.116,0.085 0.125,0.076 0.137,0.073C0.148,0.069 0.161,0.071 0.176,0.076C0.182,0.078 0.193,0.082 0.207,0.087C0.221,0.092 0.236,0.097 0.254,0.102C0.271,0.106 0.288,0.108 0.302,0.108C0.356,0.108 0.396,0.096 0.423,0.071C0.45,0.046 0.464,0.013 0.464,-0.03L0.464,-0.12L0.475,-0.113C0.473,-0.099 0.467,-0.085 0.456,-0.071C0.446,-0.056 0.432,-0.043 0.416,-0.031C0.399,-0.019 0.38,-0.009 0.358,-0.002C0.337,0.006 0.315,0.01 0.292,0.01C0.245,0.01 0.202,-0.002 0.165,-0.025C0.127,-0.049 0.098,-0.081 0.076,-0.122C0.054,-0.163 0.043,-0.21 0.043,-0.264C0.043,-0.317 0.054,-0.364 0.076,-0.406C0.098,-0.447 0.127,-0.479 0.164,-0.502C0.201,-0.526 0.243,-0.537 0.289,-0.537ZM0.303,-0.446C0.271,-0.446 0.243,-0.438 0.218,-0.422C0.193,-0.406 0.174,-0.384 0.16,-0.357C0.146,-0.329 0.139,-0.298 0.139,-0.264C0.139,-0.229 0.146,-0.199 0.16,-0.171C0.174,-0.143 0.193,-0.122 0.218,-0.106C0.243,-0.09 0.271,-0.082 0.303,-0.082C0.336,-0.082 0.365,-0.09 0.39,-0.106C0.414,-0.121 0.433,-0.143 0.448,-0.17C0.462,-0.198 0.468,-0.229 0.469,-0.264C0.468,-0.299 0.462,-0.33 0.448,-0.357C0.433,-0.385 0.414,-0.406 0.39,-0.422C0.365,-0.438 0.336,-0.446 0.303,-0.446Z" style="fill:rgb(17,193,225);fill-rule:nonzero;"/>
                </g>
                <g transform="matrix(295.275417,0,0,295.275417,617.453319,526.540894)">
                    <path d="M0.462,-0.526C0.476,-0.526 0.488,-0.521 0.497,-0.511C0.507,-0.502 0.512,-0.49 0.512,-0.475L0.512,-0.212C0.512,-0.143 0.492,-0.089 0.454,-0.05C0.415,-0.011 0.36,0.009 0.29,0.009C0.22,0.009 0.165,-0.011 0.127,-0.05C0.089,-0.089 0.07,-0.143 0.07,-0.212L0.07,-0.475C0.07,-0.49 0.074,-0.502 0.084,-0.511C0.093,-0.521 0.105,-0.526 0.12,-0.526C0.134,-0.526 0.146,-0.521 0.155,-0.511C0.165,-0.502 0.17,-0.49 0.17,-0.475L0.17,-0.212C0.17,-0.169 0.18,-0.137 0.2,-0.115C0.221,-0.094 0.251,-0.083 0.29,-0.083C0.33,-0.083 0.36,-0.094 0.381,-0.115C0.401,-0.137 0.412,-0.169 0.412,-0.212L0.412,-0.475C0.412,-0.49 0.416,-0.502 0.426,-0.511C0.435,-0.521 0.447,-0.526 0.462,-0.526Z" style="fill:rgb(17,193,225);fill-rule:nonzero;"/>
                </g>
                <g transform="matrix(295.275417,0,0,295.275417,796.390221,526.540894)">
                    <path d="M0.12,-0C0.105,-0 0.093,-0.005 0.084,-0.015C0.074,-0.024 0.07,-0.036 0.07,-0.051L0.07,-0.475C0.07,-0.49 0.074,-0.502 0.084,-0.511C0.093,-0.521 0.105,-0.526 0.12,-0.526C0.134,-0.526 0.146,-0.521 0.155,-0.511C0.165,-0.502 0.17,-0.49 0.17,-0.475L0.17,-0.362L0.16,-0.406C0.166,-0.425 0.174,-0.442 0.185,-0.458C0.196,-0.474 0.209,-0.488 0.224,-0.5C0.24,-0.512 0.257,-0.521 0.275,-0.528C0.294,-0.534 0.314,-0.537 0.335,-0.537C0.352,-0.537 0.367,-0.533 0.38,-0.524C0.393,-0.515 0.399,-0.503 0.399,-0.489C0.399,-0.471 0.395,-0.458 0.385,-0.45C0.376,-0.441 0.366,-0.437 0.354,-0.437C0.344,-0.437 0.334,-0.439 0.325,-0.444C0.316,-0.448 0.305,-0.45 0.292,-0.45C0.278,-0.45 0.263,-0.446 0.249,-0.439C0.234,-0.431 0.221,-0.421 0.209,-0.406C0.197,-0.392 0.188,-0.375 0.18,-0.356C0.173,-0.336 0.17,-0.315 0.17,-0.291L0.17,-0.051C0.17,-0.036 0.165,-0.024 0.155,-0.015C0.146,-0.005 0.134,-0 0.12,-0Z" style="fill:rgb(17,193,225);fill-rule:nonzero;"/>
                </g>
                <g transform="matrix(295.275417,0,0,295.275417,927.049593,526.540894)">
                    <path d="M0.164,-0.051C0.164,-0.036 0.159,-0.024 0.15,-0.015C0.141,-0.005 0.129,-0 0.114,-0C0.1,-0 0.088,-0.005 0.079,-0.015C0.069,-0.024 0.064,-0.036 0.064,-0.051L0.064,-0.479C0.064,-0.494 0.069,-0.506 0.079,-0.515C0.088,-0.525 0.1,-0.53 0.114,-0.53C0.129,-0.53 0.141,-0.525 0.15,-0.515C0.159,-0.506 0.164,-0.494 0.164,-0.479L0.164,-0.051ZM0.113,-0.596C0.094,-0.596 0.08,-0.6 0.071,-0.607C0.062,-0.614 0.058,-0.625 0.058,-0.642L0.058,-0.658C0.058,-0.675 0.063,-0.686 0.072,-0.693C0.081,-0.7 0.095,-0.703 0.114,-0.703C0.134,-0.703 0.148,-0.7 0.157,-0.693C0.166,-0.686 0.17,-0.674 0.17,-0.658L0.17,-0.642C0.17,-0.625 0.166,-0.613 0.157,-0.606C0.147,-0.599 0.133,-0.596 0.113,-0.596Z" style="fill:rgb(17,193,225);fill-rule:nonzero;"/>
                </g>
                <g transform="matrix(295.275417,0,0,295.275417,1001.901911,526.540894)">
                    <path d="M0.501,-0.74C0.516,-0.74 0.528,-0.735 0.537,-0.726C0.547,-0.716 0.551,-0.704 0.551,-0.689L0.551,-0.051C0.551,-0.036 0.546,-0.024 0.537,-0.015C0.527,-0.005 0.516,-0 0.501,-0C0.487,-0 0.475,-0.005 0.465,-0.015C0.456,-0.024 0.451,-0.036 0.451,-0.051L0.451,-0.123L0.472,-0.122C0.472,-0.11 0.467,-0.096 0.457,-0.081C0.448,-0.066 0.435,-0.052 0.418,-0.038C0.401,-0.024 0.381,-0.013 0.359,-0.004C0.336,0.005 0.312,0.01 0.286,0.01C0.24,0.01 0.199,-0.002 0.162,-0.025C0.125,-0.049 0.096,-0.081 0.075,-0.122C0.054,-0.163 0.043,-0.21 0.043,-0.264C0.043,-0.317 0.054,-0.364 0.075,-0.406C0.096,-0.447 0.125,-0.479 0.161,-0.502C0.198,-0.526 0.238,-0.537 0.283,-0.537C0.311,-0.537 0.337,-0.533 0.361,-0.524C0.386,-0.515 0.407,-0.503 0.425,-0.488C0.443,-0.474 0.457,-0.458 0.467,-0.442C0.477,-0.425 0.482,-0.41 0.482,-0.395L0.451,-0.392L0.451,-0.689C0.451,-0.704 0.456,-0.716 0.465,-0.725C0.475,-0.735 0.487,-0.74 0.501,-0.74ZM0.297,-0.082C0.329,-0.082 0.356,-0.09 0.38,-0.106C0.404,-0.122 0.422,-0.143 0.436,-0.171C0.449,-0.198 0.456,-0.229 0.456,-0.264C0.456,-0.298 0.449,-0.329 0.436,-0.357C0.422,-0.384 0.404,-0.406 0.38,-0.422C0.356,-0.438 0.329,-0.446 0.297,-0.446C0.267,-0.446 0.239,-0.438 0.215,-0.422C0.192,-0.406 0.173,-0.384 0.16,-0.357C0.146,-0.329 0.139,-0.298 0.139,-0.264C0.139,-0.229 0.146,-0.199 0.16,-0.171C0.173,-0.143 0.192,-0.122 0.215,-0.106C0.239,-0.09 0.267,-0.082 0.297,-0.082Z" style="fill:rgb(17,193,225);fill-rule:nonzero;"/>
                </g>
                <g transform="matrix(295.275417,0,0,295.275417,1192.576011,526.540894)">
                    <path d="M0.501,-0.533C0.516,-0.533 0.528,-0.529 0.537,-0.519C0.547,-0.51 0.551,-0.498 0.551,-0.483L0.551,-0.051C0.551,-0.036 0.546,-0.024 0.537,-0.015C0.527,-0.005 0.516,-0 0.501,-0C0.487,-0 0.475,-0.005 0.465,-0.015C0.456,-0.024 0.451,-0.036 0.451,-0.051L0.451,-0.123L0.472,-0.12C0.472,-0.108 0.467,-0.094 0.457,-0.08C0.448,-0.065 0.434,-0.051 0.418,-0.037C0.401,-0.024 0.381,-0.013 0.359,-0.004C0.336,0.006 0.312,0.01 0.286,0.01C0.24,0.01 0.199,-0.002 0.162,-0.025C0.125,-0.049 0.096,-0.081 0.075,-0.123C0.054,-0.164 0.043,-0.211 0.043,-0.264C0.043,-0.318 0.054,-0.365 0.075,-0.406C0.096,-0.447 0.125,-0.479 0.161,-0.503C0.198,-0.526 0.238,-0.537 0.283,-0.537C0.311,-0.537 0.338,-0.533 0.362,-0.524C0.386,-0.515 0.408,-0.503 0.425,-0.488C0.444,-0.474 0.457,-0.458 0.467,-0.442C0.477,-0.425 0.482,-0.41 0.482,-0.395L0.451,-0.392L0.451,-0.483C0.451,-0.497 0.456,-0.509 0.465,-0.519C0.475,-0.529 0.487,-0.533 0.501,-0.533ZM0.297,-0.082C0.329,-0.082 0.356,-0.09 0.38,-0.106C0.404,-0.122 0.422,-0.144 0.436,-0.171C0.449,-0.199 0.456,-0.23 0.456,-0.264C0.456,-0.298 0.449,-0.329 0.436,-0.357C0.422,-0.384 0.404,-0.406 0.38,-0.422C0.356,-0.438 0.329,-0.446 0.297,-0.446C0.267,-0.446 0.239,-0.438 0.215,-0.422C0.192,-0.406 0.173,-0.385 0.16,-0.357C0.146,-0.33 0.139,-0.299 0.139,-0.264C0.139,-0.23 0.146,-0.199 0.159,-0.171C0.173,-0.144 0.191,-0.122 0.215,-0.106C0.239,-0.09 0.266,-0.082 0.297,-0.082Z" style="fill:rgb(17,193,225);fill-rule:nonzero;"/>
                </g>
                <g transform="matrix(295.275417,0,0,295.275417,1383.250112,526.540894)">
                    <path d="M0.501,-0.74C0.516,-0.74 0.528,-0.735 0.537,-0.726C0.547,-0.716 0.551,-0.704 0.551,-0.689L0.551,-0.051C0.551,-0.036 0.546,-0.024 0.537,-0.015C0.527,-0.005 0.516,-0 0.501,-0C0.487,-0 0.475,-0.005 0.465,-0.015C0.456,-0.024 0.451,-0.036 0.451,-0.051L0.451,-0.123L0.472,-0.122C0.472,-0.11 0.467,-0.096 0.457,-0.081C0.448,-0.066 0.435,-0.052 0.418,-0.038C0.401,-0.024 0.381,-0.013 0.359,-0.004C0.336,0.005 0.312,0.01 0.286,0.01C0.24,0.01 0.199,-0.002 0.162,-0.025C0.125,-0.049 0.096,-0.081 0.075,-0.122C0.054,-0.163 0.043,-0.21 0.043,-0.264C0.043,-0.317 0.054,-0.364 0.075,-0.406C0.096,-0.447 0.125,-0.479 0.161,-0.502C0.198,-0.526 0.238,-0.537 0.283,-0.537C0.311,-0.537 0.337,-0.533 0.361,-0.524C0.386,-0.515 0.407,-0.503 0.425,-0.488C0.443,-0.474 0.457,-0.458 0.467,-0.442C0.477,-0.425 0.482,-0.41 0.482,-0.395L0.451,-0.392L0.451,-0.689C0.451,-0.704 0.456,-0.716 0.465,-0.725C0.475,-0.735 0.487,-0.74 0.501,-0.74ZM0.297,-0.082C0.329,-0.082 0.356,-0.09 0.38,-0.106C0.404,-0.122 0.422,-0.143 0.436,-0.171C0.449,-0.198 0.456,-0.229 0.456,-0.264C0.456,-0.298 0.449,-0.329 0.436,-0.357C0.422,-0.384 0.404,-0.406 0.38,-0.422C0.356,-0.438 0.329,-0.446 0.297,-0.446C0.267,-0.446 0.239,-0.438 0.215,-0.422C0.192,-0.406 0.173,-0.384 0.16,-0.357C0.146,-0.329 0.139,-0.298 0.139,-0.264C0.139,-0.229 0.146,-0.199 0.16,-0.171C0.173,-0.143 0.192,-0.122 0.215,-0.106C0.239,-0.09 0.267,-0.082 0.297,-0.082Z" style="fill:rgb(17,193,225);fill-rule:nonzero;"/>
                </g>
                <g transform="matrix(295.275417,0,0,295.275417,1573.924212,526.540894)">
                    <path d="M0.315,0.01C0.26,0.01 0.212,-0.002 0.171,-0.025C0.13,-0.048 0.099,-0.079 0.076,-0.12C0.054,-0.16 0.043,-0.206 0.043,-0.258C0.043,-0.317 0.055,-0.367 0.079,-0.408C0.102,-0.45 0.133,-0.482 0.171,-0.504C0.209,-0.526 0.25,-0.537 0.292,-0.537C0.325,-0.537 0.356,-0.531 0.385,-0.518C0.415,-0.506 0.441,-0.488 0.463,-0.465C0.486,-0.442 0.504,-0.415 0.518,-0.384C0.531,-0.353 0.538,-0.319 0.538,-0.282C0.538,-0.268 0.533,-0.257 0.523,-0.249C0.513,-0.24 0.501,-0.236 0.488,-0.236L0.099,-0.236L0.075,-0.321L0.451,-0.321L0.432,-0.303L0.432,-0.328C0.43,-0.351 0.423,-0.372 0.409,-0.389C0.395,-0.407 0.377,-0.42 0.357,-0.43C0.336,-0.44 0.315,-0.445 0.292,-0.445C0.272,-0.445 0.253,-0.442 0.235,-0.436C0.216,-0.429 0.2,-0.419 0.185,-0.405C0.171,-0.391 0.16,-0.373 0.152,-0.35C0.143,-0.327 0.139,-0.298 0.139,-0.264C0.139,-0.227 0.147,-0.195 0.162,-0.168C0.177,-0.14 0.198,-0.119 0.224,-0.104C0.25,-0.089 0.278,-0.082 0.31,-0.082C0.334,-0.082 0.355,-0.084 0.37,-0.089C0.387,-0.094 0.4,-0.1 0.411,-0.108C0.421,-0.115 0.431,-0.122 0.439,-0.129C0.449,-0.135 0.459,-0.138 0.469,-0.138C0.481,-0.138 0.491,-0.134 0.499,-0.125C0.507,-0.117 0.511,-0.107 0.511,-0.096C0.511,-0.081 0.504,-0.068 0.489,-0.056C0.471,-0.039 0.446,-0.023 0.414,-0.01C0.383,0.003 0.35,0.01 0.315,0.01Z" style="fill:rgb(209,88,146);fill-rule:nonzero;"/>
                </g>
                <g transform="matrix(295.275417,0,0,295.275417,1753.008752,526.540894)">
                    <path d="M0.039,-0.082C0.033,-0.091 0.03,-0.102 0.031,-0.114C0.031,-0.126 0.039,-0.137 0.052,-0.146C0.061,-0.152 0.071,-0.154 0.081,-0.153C0.092,-0.152 0.101,-0.147 0.111,-0.138C0.13,-0.117 0.151,-0.101 0.173,-0.089C0.196,-0.077 0.224,-0.071 0.257,-0.071C0.27,-0.072 0.284,-0.074 0.298,-0.077C0.312,-0.081 0.324,-0.087 0.334,-0.097C0.344,-0.107 0.349,-0.121 0.349,-0.14C0.349,-0.156 0.344,-0.17 0.333,-0.18C0.322,-0.19 0.308,-0.198 0.291,-0.204C0.274,-0.211 0.255,-0.217 0.235,-0.222C0.213,-0.228 0.192,-0.235 0.17,-0.242C0.149,-0.25 0.129,-0.259 0.112,-0.271C0.094,-0.282 0.08,-0.298 0.069,-0.316C0.058,-0.335 0.053,-0.357 0.053,-0.385C0.053,-0.417 0.062,-0.444 0.079,-0.466C0.097,-0.489 0.12,-0.506 0.148,-0.519C0.177,-0.531 0.208,-0.537 0.24,-0.537C0.26,-0.537 0.28,-0.535 0.302,-0.53C0.323,-0.526 0.344,-0.518 0.364,-0.507C0.384,-0.497 0.401,-0.482 0.416,-0.465C0.423,-0.456 0.426,-0.446 0.427,-0.434C0.428,-0.422 0.423,-0.411 0.411,-0.402C0.403,-0.395 0.393,-0.392 0.382,-0.393C0.371,-0.393 0.361,-0.397 0.354,-0.404C0.341,-0.42 0.325,-0.432 0.305,-0.441C0.285,-0.45 0.262,-0.455 0.237,-0.455C0.224,-0.455 0.211,-0.453 0.198,-0.449C0.184,-0.446 0.172,-0.439 0.163,-0.43C0.153,-0.42 0.149,-0.407 0.149,-0.389C0.149,-0.372 0.155,-0.359 0.165,-0.349C0.176,-0.339 0.191,-0.33 0.209,-0.324C0.227,-0.317 0.247,-0.311 0.268,-0.305C0.289,-0.3 0.309,-0.294 0.329,-0.287C0.349,-0.279 0.368,-0.27 0.384,-0.258C0.401,-0.247 0.414,-0.232 0.424,-0.213C0.434,-0.195 0.44,-0.172 0.44,-0.144C0.44,-0.112 0.43,-0.084 0.411,-0.061C0.393,-0.038 0.369,-0.02 0.34,-0.008C0.311,0.004 0.28,0.01 0.248,0.01C0.21,0.01 0.172,0.003 0.135,-0.011C0.097,-0.024 0.065,-0.048 0.039,-0.082Z" style="fill:rgb(209,88,146);fill-rule:nonzero;"/>
                </g>
                <g transform="matrix(295.275417,0,0,295.275417,1894.076583,526.540894)">
                </g>
            </g>
        </g>
    </g>
</svg>
